<?xml version="1.0" encoding="utf-8"?>
<!-- Generator: Adobe Illustrator 22.1.0, SVG Export Plug-In . SVG Version: 6.00 Build 0)  -->
<svg version="1.1" id="Calque_1" xmlns="http://www.w3.org/2000/svg" xmlns:xlink="http://www.w3.org/1999/xlink" x="0px" y="0px"
	 viewBox="0 0 140.6 121" style="enable-background:new 0 0 140.6 121;" xml:space="preserve">
<style type="text/css">
	.st0{fill:#FFFFFF;}
</style>
<g>
	<path class="st0" d="M17.6,77.6h106c9.3,0,17-7.6,17-17v0c0-9.3-7.6-17-17-17h-106c-9.3,0-17,7.6-17,17v0
		C0.6,69.9,8.2,77.6,17.6,77.6z"/>
</g>
<g>
	<path class="st0" d="M29.4,71.7l40.2-43.2c6.4-6.8,6-17.7-0.8-24l0,0c-6.8-6.4-17.7-6-24,0.8L4.5,48.5c-6.4,6.8-6,17.7,0.8,24l0,0
		C12.2,78.9,23,78.6,29.4,71.7z"/>
</g>
<g>
	<path class="st0" d="M5.5,72.7l40.4,43c6.4,6.8,17.2,7.1,24,0.7l0,0c6.8-6.4,7.1-17.2,0.7-24l-40.4-43c-6.4-6.8-17.2-7.1-24-0.7
		l0,0C-0.6,55.1-0.9,65.9,5.5,72.7z"/>
</g>
</svg>
